<svg xmlns="http://www.w3.org/2000/svg" width="800" height="1066" viewBox="0 0 800 1066">
  <defs>
    <linearGradient id="bg" x1="0" y1="0" x2="1" y2="1">
      <stop offset="0" stop-color="#0b0f1a"/>
      <stop offset="0.5" stop-color="#0f1a2e"/>
      <stop offset="1" stop-color="#081018"/>
    </linearGradient>
    <radialGradient id="glow" cx="30%" cy="25%" r="65%">
      <stop offset="0" stop-color="#5ee7ff" stop-opacity="0.45"/>
      <stop offset="1" stop-color="#5ee7ff" stop-opacity="0"/>
    </radialGradient>
    <pattern id="grain" width="140" height="140" patternUnits="userSpaceOnUse">
      <circle cx="18" cy="22" r="1.2" fill="#ffffff" opacity="0.06"/>
      <circle cx="62" cy="38" r="1.0" fill="#ffffff" opacity="0.05"/>
      <circle cx="104" cy="28" r="1.4" fill="#ffffff" opacity="0.05"/>
      <circle cx="36" cy="88" r="1.3" fill="#ffffff" opacity="0.05"/>
      <circle cx="92" cy="96" r="1.0" fill="#ffffff" opacity="0.04"/>
      <circle cx="120" cy="74" r="1.1" fill="#ffffff" opacity="0.04"/>
    </pattern>
  </defs>

  <rect width="800" height="1066" rx="48" fill="url(#bg)"/>
  <rect width="800" height="1066" rx="48" fill="url(#glow)"/>
  <rect width="800" height="1066" rx="48" fill="url(#grain)"/>

  <g opacity="0.9">
    <path d="M80 170h640" stroke="#7df0ff" stroke-opacity="0.18" stroke-width="6" stroke-linecap="round"/>
    <path d="M80 896h640" stroke="#7df0ff" stroke-opacity="0.12" stroke-width="6" stroke-linecap="round"/>
  </g>

  <g>
    <rect x="120" y="240" width="560" height="420" rx="28" fill="#0a1220" opacity="0.75" stroke="#89f4ff" stroke-opacity="0.18"/>
    <path d="M230 560l90-110 90 90 120-150 140 170H230z" fill="#5ee7ff" opacity="0.22"/>
    <circle cx="560" cy="365" r="46" fill="#ffd66e" opacity="0.18"/>
  </g>

  <g fill="#e8f8ff" opacity="0.9" font-family="ui-sans-serif, system-ui, -apple-system, Segoe UI, Arial" text-anchor="middle">
    <text x="400" y="770" font-size="44" font-weight="700" opacity="0.92">Image unavailable</text>
    <text x="400" y="825" font-size="26" opacity="0.75">Add product photos in Medusa or locally</text>
  </g>
</svg>

